<?xml version="1.0" encoding="UTF-8"?>
<svg id="Calque_1" data-name="Calque 1" xmlns="http://www.w3.org/2000/svg" viewBox="0 0 1478.49 408.73">
  <defs>
    <style>
      .cls-1 {
        fill: #1d1d1b;
      }
    </style>
  </defs>
  <g>
    <g>
      <g>
        <rect class="cls-1" x="631.76" y="57.39" width="107.51" height="11.34"/>
        <path d="M740.69,70.14h-110.34v-14.17h110.34v14.17ZM633.18,67.31h104.67v-8.5h-104.67v8.5Z"/>
      </g>
      <g>
        <rect class="cls-1" x="728.05" y="57.31" width="11.34" height="350"/>
        <path d="M740.8,408.73h-14.17V55.89h14.17v352.83ZM729.46,405.89h8.5V58.73h-8.5v347.17Z"/>
      </g>
    </g>
    <g>
      <g>
        <rect class="cls-1" x="189.02" y="51.75" width="107.51" height="11.34"/>
        <path d="M297.95,64.5h-110.34v-14.17h110.34v14.17ZM190.44,61.67h104.67v-8.5h-104.67v8.5Z"/>
      </g>
      <g>
        <rect class="cls-1" x="188.1" y="51.67" width="11.34" height="350"/>
        <path d="M200.85,403.09h-14.17V50.25h14.17v352.83ZM189.52,400.25h8.5V53.09h-8.5v347.17Z"/>
      </g>
    </g>
    <g>
      <g>
        <rect class="cls-1" x="258.91" y="87.06" width="245.26" height="11.34" transform="translate(46.18 296.95) rotate(-45)"/>
        <path d="M298.84,185.45l-10.02-10.02,1-1L464.25,0l10.02,10.02-1,1-174.43,174.43ZM292.83,175.43l6.01,6.01L470.26,10.02l-6.01-6.01-171.42,171.42Z"/>
      </g>
      <g>
        <rect class="cls-1" x="541.3" y="-29.89" width="11.34" height="245.26" transform="translate(94.63 413.93) rotate(-45)"/>
        <path d="M629.67,185.47l-1-1L454.24,10.04,464.26.01l175.43,175.43-10.02,10.02ZM458.25,10.04l171.42,171.42,6.01-6.01L464.26,4.02l-6.01,6.01Z"/>
      </g>
    </g>
    <g>
      <g>
        <rect class="cls-1" x="959.37" y="23.11" width="11.34" height="245.26" transform="translate(179.6 725.07) rotate(-45)"/>
        <path d="M1047.74,238.47l-1-1-174.43-174.43,10.02-10.02,175.43,175.43-10.02,10.02ZM876.32,63.04l171.42,171.42,6.01-6.01-171.42-171.42-6.01,6.01Z"/>
      </g>
      <g>
        <rect class="cls-1" x="842.39" y="305.5" width="245.26" height="11.34" transform="translate(62.62 773.51) rotate(-45)"/>
        <path d="M882.32,403.89l-10.02-10.02,1-1,174.43-174.43,10.02,10.02-1,1-174.43,174.43ZM876.3,393.87l6.01,6.01,171.42-171.42-6.01-6.01-171.42,171.42Z"/>
      </g>
    </g>
    <circle cx="35.64" cy="360.85" r="35.64"/>
  </g>
  <rect x="1157.67" y="219.17" width="320.83" height="14.17"/>
</svg>