<?xml version="1.0" encoding="UTF-8"?>
<svg id="Calque_1" data-name="Calque 1" xmlns="http://www.w3.org/2000/svg" viewBox="0 0 1760.79 353.74">
  <defs>
    <style>
      .cls-1 {
        fill: #1d1d1b;
      }
    </style>
  </defs>
  <g>
    <g>
      <g>
        <rect class="cls-1" x="509.62" y="138.38" width="11.34" height="245.26" transform="translate(-33.64 440.81) rotate(-45)"/>
        <path class="cls-1" d="M597.99,353.74l-1-1-174.43-174.43,10.02-10.02,1,1,174.43,174.43-10.02,10.02ZM426.57,178.3l171.42,171.42,6.01-6.01-171.42-171.42-6.01,6.01Z"/>
      </g>
      <g>
        <rect class="cls-1" x="392.67" y="89.91" width="245.26" height="11.34" transform="translate(83.34 392.37) rotate(-45)"/>
        <path class="cls-1" d="M432.6,188.31l-10.02-10.02L598.01,2.86l10.02,10.02-1,1-174.43,174.43ZM426.59,178.29l6.01,6.01L604.02,12.88l-6.01-6.01-171.42,171.42Z"/>
      </g>
    </g>
    <g>
      <circle cx="1124.02" cy="37.06" r="35.64"/>
      <path class="cls-1" d="M1124.02,74.12c-20.44,0-37.06-16.63-37.06-37.06S1103.58,0,1124.02,0s37.06,16.63,37.06,37.06-16.63,37.06-37.06,37.06ZM1124.02,2.83c-18.87,0-34.23,15.35-34.23,34.23s15.35,34.23,34.23,34.23,34.23-15.35,34.23-34.23-15.35-34.23-34.23-34.23Z"/>
    </g>
  </g>
  <rect y="171.59" width="320.83" height="14.17"/>
  <rect x="619.83" y="172.03" width="398.31" height="14.17"/>
  <g>
    <rect x="1370.66" y="179.35" width="451.2" height="14.17" transform="translate(335.75 1183.39) rotate(-45)"/>
    <rect x="1346.08" y="126.12" width="14.17" height="255.71" transform="translate(216.75 1031.22) rotate(-45)"/>
  </g>
</svg>